<svg width="512" height="512" viewBox="0 0 512 512" xmlns="http://www.w3.org/2000/svg">
  <rect width="512" height="512" fill="#f59e0b" rx="64"/>
  <g transform="translate(256 256)">
    <!-- Plant/Leaf -->
    <path d="M-40 -80 C-80 -40, -80 0, -40 40 C0 80, 40 80, 80 40 C80 0, 40 -40, 0 -80 C-20 -80, -40 -80, -40 -80" 
          fill="#16a34a" stroke="#15803d" stroke-width="4"/>
    <!-- Stem -->
    <rect x="-4" y="40" width="8" height="80" fill="#16a34a"/>
    <!-- Book/Knowledge Symbol -->
    <rect x="-60" y="-20" width="80" height="60" fill="#1e293b" rx="4"/>
    <rect x="-52" y="-12" width="64" height="44" fill="#f8fafc" rx="2"/>
    <!-- Text lines -->
    <rect x="-44" y="-4" width="48" height="2" fill="#1e293b"/>
    <rect x="-44" y="4" width="36" height="2" fill="#1e293b"/>
    <rect x="-44" y="12" width="42" height="2" fill="#1e293b"/>
    <rect x="-44" y="20" width="30" height="2" fill="#1e293b"/>
  </g>
</svg>